<?xml version="1.0" encoding="UTF-8" standalone="no"?>
<svg
   xmlns:dc="http://purl.org/dc/elements/1.1/"
   xmlns:cc="http://creativecommons.org/ns#"
   xmlns:rdf="http://www.w3.org/1999/02/22-rdf-syntax-ns#"
   xmlns:svg="http://www.w3.org/2000/svg"
   xmlns="http://www.w3.org/2000/svg"
   viewBox="0 0 816 1152"
   height="1152"
   width="816"
   xml:space="preserve"
   id="svg2"
   version="1.1"><metadata
     id="metadata8"><rdf:RDF><cc:Work
         rdf:about=""><dc:format>image/svg+xml</dc:format><dc:type
           rdf:resource="http://purl.org/dc/dcmitype/StillImage" /></cc:Work></rdf:RDF></metadata><defs
     id="defs6"><clipPath
       id="clipPath18"
       clipPathUnits="userSpaceOnUse"><path
         id="path16"
         d="M 0,864 H 612 V 0 H 0 Z" /></clipPath><clipPath
       id="clipPath54"
       clipPathUnits="userSpaceOnUse"><path
         id="path52"
         d="M 0,864 H 612 V 0 H 0 Z" /></clipPath></defs><g
     transform="matrix(1.3333333,0,0,-1.3333333,0,1152)"
     id="g10"><g
       id="g12"><g
         clip-path="url(#clipPath18)"
         id="g14"><g
           transform="translate(323.2334,223.1602)"
           id="g20"><path
             id="path22"
             style="fill:#231f20;fill-opacity:1;fill-rule:nonzero;stroke:none"
             d="m 0,0 c -4.408,0 -8.062,0.813 -10.856,2.416 -2.8,1.607 -5.252,4.461 -7.288,8.482 -2.028,4.005 -3.056,9.196 -3.056,15.427 0,8.31 1.803,14.798 5.357,19.285 3.576,4.512 8.703,6.8 15.239,6.8 5.106,0 9.186,-1.316 12.127,-3.911 2.926,-2.585 5.129,-6.593 6.549,-11.912 L 18.168,36.229 6.516,32.984 6.426,33.363 C 6.071,34.847 5.685,35.936 5.277,36.602 4.624,37.735 3.813,38.61 2.86,39.211 1.914,39.808 0.853,40.11 -0.294,40.11 c -2.669,0 -4.666,-1.317 -6.107,-4.027 -1.101,-2.027 -1.659,-5.281 -1.659,-9.673 0,-5.445 0.664,-9.211 1.971,-11.194 1.292,-1.962 3.051,-2.916 5.375,-2.916 2.263,0 3.924,0.767 5.078,2.347 1.178,1.613 2.046,4.003 2.582,7.107 l 0.077,0.449 11.535,-4.386 -0.06,-0.308 C 17.764,13.686 16.59,10.444 15.008,7.877 13.41,5.288 11.404,3.308 9.043,1.989 6.677,0.669 3.634,0 0,0" /></g><g
           transform="translate(322.6289,275.9453)"
           id="g24"><path
             id="path26"
             style="fill:#ffffff;fill-opacity:1;fill-rule:nonzero;stroke:none"
             d="m 0,0 c -6.655,0 -11.881,-2.335 -15.532,-6.941 -3.609,-4.556 -5.439,-11.122 -5.439,-19.519 0,-6.291 1.042,-11.538 3.097,-15.597 2.069,-4.087 4.57,-6.993 7.436,-8.637 2.852,-1.637 6.568,-2.466 11.042,-2.466 3.7,0 6.803,0.685 9.226,2.036 2.418,1.351 4.47,3.375 6.102,6.019 1.605,2.607 2.797,5.89 3.539,9.757 l 0.119,0.619 -0.589,0.224 -10.814,4.111 -0.851,0.324 -0.155,-0.897 c -0.526,-3.047 -1.371,-5.385 -2.515,-6.95 -1.079,-1.476 -2.642,-2.193 -4.775,-2.193 -2.189,0 -3.844,0.898 -5.063,2.747 -1.266,1.921 -1.908,5.618 -1.908,10.988 0,4.328 0.542,7.521 1.611,9.491 1.373,2.582 3.263,3.834 5.78,3.834 1.075,0 2.069,-0.283 2.954,-0.842 0.9,-0.567 1.67,-1.398 2.288,-2.471 0.396,-0.649 0.767,-1.701 1.112,-3.146 l 0.181,-0.758 0.75,0.209 10.92,3.04 0.714,0.2 -0.191,0.716 C 17.6,-10.709 15.358,-6.64 12.376,-4.005 9.364,-1.348 5.2,0 0,0 m 0,-0.75 c 5.037,0 8.997,-1.273 11.88,-3.817 2.883,-2.547 5.027,-6.455 6.434,-11.728 l -10.919,-3.04 c -0.365,1.525 -0.761,2.642 -1.193,3.347 -0.681,1.182 -1.526,2.093 -2.537,2.731 -1.01,0.637 -2.129,0.957 -3.354,0.957 -2.794,0 -4.941,-1.409 -6.439,-4.226 -1.135,-2.09 -1.702,-5.373 -1.702,-9.849 0,-5.545 0.677,-9.345 2.032,-11.4 1.356,-2.058 3.25,-3.085 5.689,-3.085 2.369,0 4.162,0.834 5.38,2.501 1.218,1.667 2.101,4.088 2.649,7.264 l 10.814,-4.111 c -0.728,-3.794 -1.875,-6.963 -3.441,-9.506 -1.569,-2.543 -3.512,-4.463 -5.828,-5.757 -2.319,-1.293 -5.272,-1.941 -8.861,-1.941 -4.364,0 -7.919,0.789 -10.669,2.366 -2.749,1.578 -5.128,4.353 -7.14,8.326 -2.012,3.974 -3.016,9.06 -3.016,15.258 0,8.262 1.759,14.612 5.277,19.053 3.517,4.437 8.499,6.657 14.944,6.657" /></g><g
           transform="translate(362.7725,248.7803)"
           id="g28"><path
             id="path30"
             style="fill:#35b6ed;fill-opacity:1;fill-rule:nonzero;stroke:none"
             d="m 0,0 c -1.438,0 -2.616,-0.655 -3.602,-2.004 -0.997,-1.365 -1.502,-3.363 -1.502,-5.937 0,-2.625 0.53,-4.7 1.575,-6.166 1.03,-1.449 2.252,-2.153 3.736,-2.153 1.345,0 2.442,0.631 3.356,1.928 0.933,1.321 1.406,3.345 1.406,6.014 0,2.737 -0.496,4.841 -1.476,6.255 C 2.532,-0.675 1.39,0 0,0 m 0.521,-25.62 c -4.068,0 -7.385,0.883 -9.86,2.625 -2.472,1.736 -4.474,4.539 -5.953,8.331 -1.466,3.76 -2.209,8.799 -2.209,14.977 0,9.058 1.563,15.799 4.647,20.036 3.111,4.274 7.475,6.441 12.972,6.441 3.253,0 5.86,-0.477 7.747,-1.416 1.892,-0.94 3.489,-2.336 4.751,-4.147 1.25,-1.799 2.212,-4.082 2.858,-6.787 l 0.093,-0.396 -11.902,-1.811 -0.057,0.37 c -0.286,1.838 -0.753,3.142 -1.387,3.876 -0.617,0.71 -1.354,1.056 -2.252,1.056 -1.657,0 -2.924,-1.04 -3.871,-3.18 -0.66,-1.469 -1.174,-4.561 -1.532,-9.2 1.136,1.276 2.303,2.263 3.48,2.941 1.454,0.839 3.158,1.264 5.066,1.264 3.687,0 6.849,-1.656 9.401,-4.922 2.529,-3.24 3.811,-7.393 3.811,-12.346 0,-3.337 -0.643,-6.432 -1.913,-9.199 -1.277,-2.786 -3.076,-4.924 -5.347,-6.357 -2.269,-1.431 -5.143,-2.156 -8.543,-2.156" /></g><g
           transform="translate(362.9795,232.8955)"
           id="g32"><path
             id="path34"
             style="fill:#ffffff;fill-opacity:1;fill-rule:nonzero;stroke:none"
             d="m 0,0 c -1.354,0 -2.477,0.652 -3.431,1.994 -0.999,1.402 -1.506,3.404 -1.506,5.949 0,2.494 0.482,4.417 1.431,5.717 0.91,1.244 1.988,1.85 3.299,1.85 1.257,0 2.299,-0.622 3.186,-1.902 C 3.913,12.259 4.387,10.226 4.387,7.566 4.387,4.977 3.938,3.025 3.051,1.77 2.211,0.578 1.214,0 0,0 m -0.089,43.05 c -5.624,0 -10.09,-2.219 -13.275,-6.596 -3.131,-4.302 -4.719,-11.117 -4.719,-20.257 0,-6.224 0.752,-11.309 2.234,-15.113 1.506,-3.861 3.554,-6.722 6.088,-8.501 2.538,-1.787 5.929,-2.693 10.074,-2.693 3.472,0 6.415,0.745 8.745,2.214 2.333,1.471 4.179,3.665 5.487,6.517 1.292,2.817 1.947,5.965 1.947,9.356 0,5.038 -1.309,9.269 -3.891,12.577 -2.626,3.361 -5.888,5.066 -9.696,5.066 -1.974,0 -3.742,-0.442 -5.254,-1.315 -0.955,-0.55 -1.903,-1.296 -2.831,-2.228 0.348,4.003 0.822,6.692 1.412,8.009 0.882,1.992 2.037,2.959 3.53,2.959 0.783,0 1.427,-0.304 1.968,-0.928 0.588,-0.679 1.026,-1.92 1.3,-3.687 l 0.116,-0.739 0.739,0.113 11.13,1.693 0.805,0.122 -0.189,0.793 c -0.656,2.75 -1.637,5.076 -2.913,6.913 -1.299,1.864 -2.945,3.3 -4.893,4.27 -1.939,0.966 -4.602,1.455 -7.914,1.455 M 0,-0.75 c 1.46,0 2.683,0.695 3.663,2.087 0.982,1.391 1.474,3.468 1.474,6.229 0,2.829 -0.515,4.986 -1.542,6.469 -1.028,1.484 -2.295,2.225 -3.802,2.225 -1.552,0 -2.855,-0.721 -3.904,-2.157 -1.05,-1.438 -1.576,-3.492 -1.576,-6.16 0,-2.716 0.548,-4.844 1.645,-6.383 C -2.946,0.02 -1.6,-0.75 0,-0.75 M -0.089,42.3 c 3.209,0 5.736,-0.459 7.58,-1.377 1.844,-0.917 3.38,-2.259 4.611,-4.026 1.228,-1.767 2.162,-3.987 2.799,-6.659 L 3.771,28.545 c -0.297,1.919 -0.789,3.272 -1.474,4.063 -0.686,0.791 -1.53,1.187 -2.535,1.187 -1.805,0 -3.21,-1.136 -4.214,-3.402 -0.733,-1.633 -1.282,-5.126 -1.647,-10.478 1.346,1.685 2.721,2.932 4.125,3.74 1.403,0.81 3.029,1.215 4.879,1.215 3.582,0 6.617,-1.594 9.105,-4.778 2.487,-3.186 3.732,-7.224 3.732,-12.115 0,-3.3 -0.627,-6.314 -1.879,-9.043 -1.252,-2.731 -2.987,-4.796 -5.206,-6.196 -2.218,-1.398 -5,-2.098 -8.344,-2.098 -4.006,0 -7.22,0.851 -9.643,2.556 -2.423,1.702 -4.362,4.423 -5.819,8.16 -1.457,3.738 -2.184,8.684 -2.184,14.841 0,9.019 1.524,15.624 4.575,19.816 3.05,4.19 7.274,6.287 12.669,6.287" /></g><g
           transform="translate(280.3203,249.0186)"
           id="g36"><path
             id="path38"
             style="fill:#231f20;fill-opacity:1;fill-rule:nonzero;stroke:none"
             d="m 0,0 c -1.39,0 -2.532,-0.675 -3.492,-2.063 -0.98,-1.414 -1.477,-3.518 -1.477,-6.255 0,-2.668 0.473,-4.692 1.406,-6.014 0.915,-1.297 2.013,-1.928 3.357,-1.928 1.484,0 2.706,0.704 3.736,2.154 1.045,1.465 1.574,3.54 1.574,6.166 0,2.575 -0.505,4.573 -1.501,5.936 C 2.617,-0.655 1.438,0 0,0 m -0.52,-25.619 c -3.398,0 -6.273,0.725 -8.544,2.155 -2.272,1.434 -4.071,3.572 -5.346,6.357 -1.27,2.767 -1.913,5.862 -1.913,9.199 0,4.952 1.282,9.106 3.812,12.346 2.55,3.266 5.713,4.922 9.399,4.922 1.906,0 3.611,-0.424 5.067,-1.263 1.176,-0.678 2.343,-1.664 3.479,-2.941 -0.358,4.637 -0.872,7.729 -1.53,9.198 -0.948,2.141 -2.215,3.181 -3.873,3.181 -0.898,0 -1.634,-0.346 -2.251,-1.056 -0.634,-0.731 -1.101,-2.036 -1.388,-3.876 l -0.058,-0.37 -11.902,1.811 0.095,0.396 c 0.646,2.706 1.608,4.99 2.857,6.787 1.262,1.812 2.861,3.208 4.752,4.148 1.888,0.938 4.494,1.415 7.746,1.415 5.496,0 9.861,-2.167 12.972,-6.44 3.084,-4.238 4.648,-10.979 4.648,-20.037 0,-6.175 -0.743,-11.215 -2.209,-14.977 -1.478,-3.79 -3.48,-6.593 -5.953,-8.331 -2.475,-1.741 -5.793,-2.624 -9.86,-2.624" /></g><g
           transform="translate(280.1143,233.1338)"
           id="g40"><path
             id="path42"
             style="fill:#ffffff;fill-opacity:1;fill-rule:nonzero;stroke:none"
             d="m 0,0 c -1.213,0 -2.211,0.579 -3.051,1.77 -0.887,1.256 -1.337,3.208 -1.337,5.796 0,2.66 0.474,4.693 1.409,6.042 0.886,1.28 1.928,1.902 3.185,1.902 1.311,0 2.39,-0.606 3.3,-1.85 0.949,-1.299 1.43,-3.222 1.43,-5.716 C 4.936,5.398 4.429,3.397 3.431,1.996 2.476,0.652 1.354,0 0,0 m 0.088,43.05 c -3.31,0 -5.973,-0.489 -7.913,-1.454 -1.948,-0.969 -3.594,-2.406 -4.892,-4.27 -1.277,-1.836 -2.257,-4.162 -2.915,-6.914 l -0.189,-0.793 0.806,-0.122 11.13,-1.693 0.739,-0.113 0.115,0.739 c 0.275,1.77 0.713,3.01 1.301,3.688 0.541,0.623 1.185,0.927 1.967,0.927 1.494,0 2.649,-0.967 3.529,-2.956 0.592,-1.32 1.066,-4.01 1.413,-8.011 -0.929,0.932 -1.876,1.678 -2.831,2.229 -1.513,0.871 -3.281,1.313 -5.254,1.313 -3.808,0 -7.07,-1.704 -9.695,-5.065 -2.582,-3.309 -3.891,-7.54 -3.891,-12.578 0,-3.391 0.655,-6.539 1.947,-9.356 1.306,-2.851 3.152,-5.044 5.486,-6.517 2.332,-1.469 5.275,-2.213 8.746,-2.213 4.146,0 7.535,0.906 10.075,2.692 2.533,1.781 4.581,4.642 6.086,8.501 1.483,3.807 2.235,8.892 2.235,15.114 0,9.139 -1.588,15.954 -4.72,20.257 C 10.178,40.831 5.711,43.05 0.088,43.05 M 0,-0.75 c 1.6,0 2.946,0.77 4.042,2.311 1.096,1.538 1.644,3.666 1.644,6.383 0,2.667 -0.525,4.722 -1.575,6.159 -1.05,1.437 -2.353,2.157 -3.905,2.157 -1.506,0 -2.774,-0.741 -3.801,-2.225 -1.027,-1.482 -1.543,-3.64 -1.543,-6.469 0,-2.76 0.492,-4.837 1.474,-6.229 C -2.683,-0.054 -1.461,-0.75 0,-0.75 M 0.088,42.3 c 5.396,0 9.619,-2.097 12.669,-6.286 3.052,-4.193 4.576,-10.797 4.576,-19.816 0,-6.157 -0.728,-11.104 -2.184,-14.842 -1.457,-3.737 -3.396,-6.457 -5.819,-8.16 -2.424,-1.705 -5.638,-2.555 -9.643,-2.555 -3.344,0 -6.126,0.7 -8.345,2.097 -2.218,1.4 -3.954,3.465 -5.205,6.196 -1.252,2.729 -1.879,5.744 -1.879,9.043 0,4.892 1.245,8.929 3.732,12.116 2.488,3.184 5.523,4.777 9.104,4.777 1.85,0 3.476,-0.405 4.88,-1.214 1.404,-0.808 2.778,-2.055 4.124,-3.741 -0.365,5.353 -0.914,8.845 -1.646,10.478 -1.004,2.267 -2.41,3.402 -4.215,3.402 -1.004,0 -1.848,-0.396 -2.534,-1.186 -0.686,-0.791 -1.177,-2.144 -1.475,-4.064 l -11.13,1.693 c 0.638,2.673 1.572,4.893 2.8,6.659 1.231,1.768 2.766,3.11 4.611,4.027 1.844,0.917 4.37,1.376 7.579,1.376" /></g></g></g><text
       id="text46"
       style="font-variant:normal;font-weight:900;font-stretch:normal;font-size:42.05279922px;font-family:'Arial Black';-inkscape-font-specification:Arial-Black;writing-mode:lr-tb;fill:#231f20;fill-opacity:1;fill-rule:nonzero;stroke:none"
       transform="matrix(1,0,0,-0.49230016,266.3191,205.6967)"><tspan
         id="tspan44"
         y="0"
         x="0 18.671444 46.720661 74.769882 88.77346">tools</tspan></text>
<g
       id="g48"><g
         clip-path="url(#clipPath54)"
         id="g50"><g
           transform="translate(270.549,218.4034)"
           id="g56"><path
             id="path58"
             style="fill:none;stroke:#ffffff;stroke-width:0.75;stroke-linecap:butt;stroke-linejoin:miter;stroke-miterlimit:4;stroke-dasharray:none;stroke-opacity:1"
             d="M 0,0 V -1.971 H -3.08 V -4.984 H 0 v -3.775 c 0,-1.199 0.236,-2.065 0.708,-2.6 0.473,-0.535 1.202,-0.934 2.187,-1.196 0.986,-0.263 2.519,-0.394 4.6,-0.394 1.793,0 3.723,0.111 5.79,0.333 l -0.616,2.84 c -1.109,-0.175 -1.971,-0.262 -2.587,-0.262 -0.685,0 -1.164,0.114 -1.437,0.343 -0.178,0.148 -0.267,0.451 -0.267,0.908 v 3.803 h 4.599 v 3.013 H 8.378 v 4.084 z" /></g><g
           transform="translate(290.4666,206.7683)"
           id="g60"><path
             id="path62"
             style="fill:none;stroke:#ffffff;stroke-width:0.75;stroke-linecap:butt;stroke-linejoin:miter;stroke-miterlimit:4;stroke-dasharray:none;stroke-opacity:1"
             d="m 0,0 c 2.163,-0.876 4.996,-1.314 8.501,-1.314 3.929,0 7.005,0.527 9.23,1.582 2.224,1.054 3.336,2.407 3.336,4.059 0,1.469 -0.896,2.705 -2.689,3.709 C 16.146,9.283 12.847,9.907 8.48,9.907 4.661,9.907 1.629,9.376 -0.616,8.314 -2.861,7.253 -3.984,5.903 -3.984,4.266 -3.984,2.507 -2.656,1.085 0,0 Z m 5.585,6.384 c 0.794,0.461 1.8,0.692 3.019,0.692 1.149,0 2.115,-0.227 2.895,-0.682 0.78,-0.455 1.17,-1.148 1.17,-2.078 0,-0.997 -0.387,-1.722 -1.16,-2.173 C 10.736,1.691 9.746,1.466 8.542,1.466 7.351,1.466 6.362,1.695 5.575,2.153 4.788,2.611 4.394,3.319 4.394,4.276 c 0,0.943 0.397,1.646 1.191,2.108 z" /></g><g
           transform="translate(318.5154,206.7683)"
           id="g64"><path
             id="path66"
             style="fill:none;stroke:#ffffff;stroke-width:0.75;stroke-linecap:butt;stroke-linejoin:miter;stroke-miterlimit:4;stroke-dasharray:none;stroke-opacity:1"
             d="m 0,0 c 2.163,-0.876 4.996,-1.314 8.501,-1.314 3.929,0 7.005,0.527 9.23,1.582 2.224,1.054 3.336,2.407 3.336,4.059 0,1.469 -0.896,2.705 -2.689,3.709 C 16.146,9.283 12.847,9.907 8.48,9.907 4.661,9.907 1.629,9.376 -0.616,8.314 -2.861,7.253 -3.984,5.903 -3.984,4.266 -3.984,2.507 -2.656,1.085 0,0 Z m 5.585,6.384 c 0.794,0.461 1.8,0.692 3.019,0.692 1.149,0 2.115,-0.227 2.895,-0.682 0.78,-0.455 1.17,-1.148 1.17,-2.078 0,-0.997 -0.387,-1.722 -1.16,-2.173 C 10.736,1.691 9.746,1.466 8.542,1.466 7.351,1.466 6.362,1.695 5.575,2.153 4.788,2.611 4.394,3.319 4.394,4.276 c 0,0.943 0.397,1.646 1.191,2.108 z" /></g><path
           id="path68"
           style="fill:none;stroke:#ffffff;stroke-width:0.75;stroke-linecap:butt;stroke-linejoin:miter;stroke-miterlimit:4;stroke-dasharray:none;stroke-opacity:1"
           d="m 343.895,205.697 h 8.378 v 14.819 h -8.378 z" /><g
           transform="translate(359.3875,206.2932)"
           id="g70"><path
             id="path72"
             style="fill:none;stroke:#ffffff;stroke-width:0.75;stroke-linecap:butt;stroke-linejoin:miter;stroke-miterlimit:4;stroke-dasharray:none;stroke-opacity:1"
             d="m 0,0 c 1.69,-0.559 4.528,-0.839 8.511,-0.839 2.82,0 5.048,0.173 6.684,0.52 1.635,0.347 2.834,0.813 3.593,1.399 0.76,0.585 1.14,1.188 1.14,1.807 0,0.613 -0.359,1.175 -1.078,1.687 C 18.131,5.085 17.094,5.479 15.739,5.755 14.384,6.031 12.317,6.247 9.538,6.401 7.703,6.509 6.512,6.63 5.965,6.765 5.417,6.9 5.144,7.098 5.144,7.36 c 0,0.236 0.215,0.436 0.646,0.601 0.432,0.165 1.12,0.247 2.064,0.247 0.931,0 1.725,-0.108 2.382,-0.323 0.479,-0.162 0.821,-0.415 1.027,-0.758 l 7.926,0.384 c -0.548,0.701 -1.236,1.257 -2.064,1.668 -0.828,0.411 -1.862,0.714 -3.101,0.909 -1.239,0.196 -3.159,0.294 -5.759,0.294 -2.464,0 -4.429,-0.127 -5.893,-0.379 C 0.907,9.75 -0.243,9.368 -1.078,8.857 -1.913,8.345 -2.331,7.736 -2.331,7.029 -2.331,6.383 -1.944,5.807 -1.17,5.302 -0.397,4.797 0.554,4.439 1.684,4.227 2.813,4.014 4.829,3.784 7.731,3.535 9.675,3.367 10.873,3.225 11.324,3.111 11.954,2.949 12.269,2.721 12.269,2.425 12.269,2.162 12.029,1.943 11.55,1.769 10.934,1.533 10.065,1.415 8.942,1.415 7.916,1.415 7.094,1.52 6.478,1.729 5.862,1.937 5.383,2.285 5.041,2.77 L -3.255,2.386 C -2.776,1.355 -1.691,0.559 0,0 Z" /></g></g></g></g></svg>